<mxfile host="app.diagrams.net" modified="2024-07-11T05:13:09.648Z" agent="Mozilla/5.0 (Windows NT 10.0; Win64; x64) AppleWebKit/537.36 (KHTML, like Gecko) Chrome/94.0.4606.71 Safari/537.36 Core/1.94.259.400 QQBrowser/12.6.5709.400" version="24.6.4" etag="BPdnB-gk3vx_0K0wEp4s" type="github">
  <diagram name="第 1 页" id="TCZnw0uMoN7Yit49dd6k">
    <mxGraphModel>
      <root>
        <mxCell id="0" />
        <mxCell id="1" parent="0" />
      </root>
    </mxGraphModel>
  </diagram>
</mxfile>
